# xmcd
#
# Track frame offsets:
#	150
#	18500
#	33872
#	48355
#	62820
#	77480
#	96325
#	111417
#	125235
#	139990
#	154662
#	170209
#	183927
#	199605
#	214247
#	229397
#	244390
#	264515
#	279475
#	293400
#	308665
#	323010
#
# Disc length: 4504 seconds
#
# Revision: 5
# Processed by: cddbd v1.5.2PL0 Copyright (c) Steve Scherf et al.
# Submitted via: EasyCDDAExtractor 16.0.6.1
#
DISCID=45119616
DTITLE=Συλλογικός δίσκος - Ρεμπέτικα Songs Greek Underground 2
DYEAR=2005
DGENRE=Ρεμπέτικη
TTITLE0=Άνευ ερμηνευτού - Μινόρε του τεκέ [1932, Ιωάννης Χαλκιάς]
TTITLE1=Παγιουμτζής Στράτος - Σαν εγύριζα από την Πύλο [1935]
TTITLE2=Μάρκος Βαμβακάρης - Όλοι οι ρεμπέτες του ντουνιά [1937]
TTITLE3=Δελλιάς Ανέστης - Το χαρέμι στο χαμάμ [1936]
TTITLE4=Ρίτα Αμπατζή - Ο ξεμάγκας [1935]
TTITLE5=Μπέζος Κώστας ή Κωστής Α. - Η φυλακή είναι σχολείο [1931]
TTITLE6=Δελλιάς Ανέστης - Το σακκάκι [1935]
TTITLE7=Παπάζογλου Βαγγέλης-Περπινιάδης Στελλάκης - Η φωνή του αργιλέ [1935]
TTITLE8=Αμπατζή Ρίτα-Βαμβακάρης Μάρκος - Σαν είσαι μάγκας και νταής [1934]
TTITLE9=Μπάτης Γιώργος - Οι φυλακές του Ωρωπού [1935]
TTITLE10=Δελλιάς Ανέστης - Το κουτσαβάκι [1936]
TTITLE11=Εσκενάζυ Ρόζα - Στην φυλακή [1930]
TTITLE12=Χασκίλ Στέλλα - Νύχτωσε χωρίς φεγγάρι [1947, Απ. Καλδάρας]
TTITLE13=Περπινιάδης Στελλάκης - Οι λαχανάδες [1934]
TTITLE14=Δελλιάς Ανέστης - Νίκος ο τρελλάκιας [1936]
TTITLE15=Ρούκουνας Κώστας ή Σαμιωτάκης - Κουβέντα με τον Χάρο [1936, Παν. Τούν
TTITLE15=τας]
TTITLE16=Κατσαρός Γιώργος - Μάννα μου είμαι φθισικός [1935]
TTITLE17=Ατραΐδης Δημήτρης - Τον Χάρο τον ρωτήσανε [1934]
TTITLE18=Μοσχονάς Οδυσσέας - Πέντε Έλληνες στον Άδη [1947]
TTITLE19=Χατζηχρήστος Απόστολος-Σταμούλης Ιωάννης - Η μαννούλα [1946]
TTITLE20=Ρούκουνας Κώστας ή Σαμιωτάκης - Ο φθισικός [1936]
TTITLE21=Παγιουμτζής Στράτος - Μινόρε μανές [1937]
EXTD=YEAR: 2001
EXTT0=
EXTT1=
EXTT2=
EXTT3=
EXTT4=
EXTT5=
EXTT6=
EXTT7=
EXTT8=
EXTT9=
EXTT10=
EXTT11=
EXTT12=
EXTT13=
EXTT14=
EXTT15=
EXTT16=
EXTT17=
EXTT18=
EXTT19=
EXTT20=
EXTT21=
PLAYORDER=
